# xmcd CD database file
#
# Track frame offsets:
#	150
#	14409
#	32795
#	52857
#	77307
#	93319
#	114619
#	142594
#	160819
#
# Disc length: 2445 seconds
#
# Revision: 0
# Processed by: cddbd v1.5.2PL0 Copyright (c) Steve Scherf et al.
# Submitted via: CDex 1.70beta2
#
DISCID=5c098b09
DTITLE=A1 - POLYGON RAIN
DYEAR=2009
DGENRE=東方アレンジ
TTITLE0=ToRyan-Se
TTITLE1=From Hell Garden
TTITLE2=蝕む恋の行方
TTITLE3=焔の海
TTITLE4=Princess Bridge
TTITLE5=LAST EMOTION
TTITLE6=Lost the PAST
TTITLE7=OK! KissME!
TTITLE8=Jealousy
EXTD=YEAR: 2009
EXTT0=
EXTT1=
EXTT2=
EXTT3=
EXTT4=
EXTT5=
EXTT6=
EXTT7=
EXTT8=
PLAYORDER=
